<?xml version="1.0" encoding="UTF-8" standalone="no"?><!-- Generator: Gravit.io --><svg xmlns="http://www.w3.org/2000/svg" xmlns:xlink="http://www.w3.org/1999/xlink" style="isolation:isolate" viewBox="0 0 512 512" width="512pt" height="512pt"><defs><clipPath id="_clipPath_JOTSUlwWw5CTcCTfWaAJkQWUZdjNuUrd"><rect width="512" height="512"/></clipPath></defs><g clip-path="url(#_clipPath_JOTSUlwWw5CTcCTfWaAJkQWUZdjNuUrd)"><path d=" M 203 272 L 228 280 L 241 256 L 262 256 L 262 280 L 293 272 L 293 247 L 305.962 238 L 324 256 L 345 238 L 324 212 L 337 198 L 364 218 L 383 189 L 359 172 L 364 164 L 403 164 L 403 156.631 L 305.962 156.631 L 203 272 Z " fill="rgb(241,241,241)" vector-effect="non-scaling-stroke" stroke-width="1" stroke="rgb(227,227,227)" stroke-linejoin="miter" stroke-linecap="square" stroke-miterlimit="3"/><path d=" M 120 177.726 L 134 212 L 166 193 L 180 212 L 159 234 L 180 256 L 198.266 238 L 212 247 L 203 272 L 212 272 L 217.141 177.726 L 120 177.726 Z " fill="rgb(241,241,241)" vector-effect="non-scaling-stroke" stroke-width="1" stroke="rgb(227,227,227)" stroke-linejoin="miter" stroke-linecap="square" stroke-miterlimit="3"/><path d=" M 99.452 110 L 33.947 177.726 L 217.141 177.726 L 198.266 402 L 283.757 365.361 L 305.962 156.631 L 448.076 156.631 L 478.053 110 L 99.452 110 Z " fill="rgb(255,255,255)" vector-effect="non-scaling-stroke" stroke-width="1" stroke="rgb(227,227,227)" stroke-linejoin="miter" stroke-linecap="square" stroke-miterlimit="3"/></g></svg>